<svg width="317" height="427" viewBox="0 0 317 427" fill="none" xmlns="http://www.w3.org/2000/svg">
<path d="M5.25 109V27.5455H62.5227V45.3636H27.3636V59.3636H59.0227V77.1818H27.3636V109H5.25ZM70.6562 109V27.5455H92.7699V91.1818H125.702V109H70.6562ZM116.534 27.5455H141.193L157.102 60.6364H157.739L173.648 27.5455H198.307L168.398 83.3864V109H146.443V83.3864L116.534 27.5455ZM25.9318 245L1.90909 163.545H26.5682L37.7045 213.659H38.3409L51.5455 163.545H70.9545L84.1591 213.818H84.7955L95.9318 163.545H120.591L96.5682 245H75.4091L61.5682 199.5H60.9318L47.0909 245H25.9318ZM149.864 163.545V245H127.75V163.545H149.864ZM158.116 181.364V163.545H228.912V181.364H204.412V245H182.616V181.364H158.116ZM237.234 245V163.545H259.348V195.364H288.621V163.545H310.734V245H288.621V213.182H259.348V245H237.234ZM5.25 299.545H32.7727L51.7045 345.682H52.6591L71.5909 299.545H99.1136V381H77.4773V333.909H76.8409L58.7045 380.364H45.6591L27.5227 333.591H26.8864V381H5.25V299.545ZM109.594 381V299.545H168.298V317.364H131.707V331.364H165.276V349.182H131.707V363.182H168.139V381H109.594ZM191.516 382.273C188.44 382.273 185.802 381.199 183.601 379.051C181.427 376.877 180.353 374.239 180.379 371.136C180.353 368.114 181.427 365.528 183.601 363.381C185.802 361.233 188.44 360.159 191.516 360.159C194.432 360.159 197.004 361.233 199.232 363.381C201.485 365.528 202.625 368.114 202.652 371.136C202.625 373.205 202.082 375.087 201.021 376.784C199.987 378.455 198.635 379.794 196.964 380.801C195.294 381.782 193.478 382.273 191.516 382.273ZM226.516 382.273C223.44 382.273 220.802 381.199 218.601 379.051C216.427 376.877 215.353 374.239 215.379 371.136C215.353 368.114 216.427 365.528 218.601 363.381C220.802 361.233 223.44 360.159 226.516 360.159C229.432 360.159 232.004 361.233 234.232 363.381C236.485 365.528 237.625 368.114 237.652 371.136C237.625 373.205 237.082 375.087 236.021 376.784C234.987 378.455 233.635 379.794 231.964 380.801C230.294 381.782 228.478 382.273 226.516 382.273ZM261.516 382.273C258.44 382.273 255.802 381.199 253.601 379.051C251.427 376.877 250.353 374.239 250.379 371.136C250.353 368.114 251.427 365.528 253.601 363.381C255.802 361.233 258.44 360.159 261.516 360.159C264.432 360.159 267.004 361.233 269.232 363.381C271.485 365.528 272.625 368.114 272.652 371.136C272.625 373.205 272.082 375.087 271.021 376.784C269.987 378.455 268.635 379.794 266.964 380.801C265.294 381.782 263.478 382.273 261.516 382.273Z" fill="#2F527A"/>
<path d="M5.25 109H4.25V110H5.25V109ZM5.25 27.5455V26.5455H4.25V27.5455H5.25ZM62.5227 27.5455H63.5227V26.5455H62.5227V27.5455ZM62.5227 45.3636V46.3636H63.5227V45.3636H62.5227ZM27.3636 45.3636V44.3636H26.3636V45.3636H27.3636ZM27.3636 59.3636H26.3636V60.3636H27.3636V59.3636ZM59.0227 59.3636H60.0227V58.3636H59.0227V59.3636ZM59.0227 77.1818V78.1818H60.0227V77.1818H59.0227ZM27.3636 77.1818V76.1818H26.3636V77.1818H27.3636ZM27.3636 109V110H28.3636V109H27.3636ZM6.25 109V27.5455H4.25V109H6.25ZM5.25 28.5455H62.5227V26.5455H5.25V28.5455ZM61.5227 27.5455V45.3636H63.5227V27.5455H61.5227ZM62.5227 44.3636H27.3636V46.3636H62.5227V44.3636ZM26.3636 45.3636V59.3636H28.3636V45.3636H26.3636ZM27.3636 60.3636H59.0227V58.3636H27.3636V60.3636ZM58.0227 59.3636V77.1818H60.0227V59.3636H58.0227ZM59.0227 76.1818H27.3636V78.1818H59.0227V76.1818ZM26.3636 77.1818V109H28.3636V77.1818H26.3636ZM27.3636 108H5.25V110H27.3636V108ZM70.6562 109H69.6562V110H70.6562V109ZM70.6562 27.5455V26.5455H69.6562V27.5455H70.6562ZM92.7699 27.5455H93.7699V26.5455H92.7699V27.5455ZM92.7699 91.1818H91.7699V92.1818H92.7699V91.1818ZM125.702 91.1818H126.702V90.1818H125.702V91.1818ZM125.702 109V110H126.702V109H125.702ZM71.6562 109V27.5455H69.6562V109H71.6562ZM70.6562 28.5455H92.7699V26.5455H70.6562V28.5455ZM91.7699 27.5455V91.1818H93.7699V27.5455H91.7699ZM92.7699 92.1818H125.702V90.1818H92.7699V92.1818ZM124.702 91.1818V109H126.702V91.1818H124.702ZM125.702 108H70.6562V110H125.702V108ZM116.534 27.5455V26.5455H114.864L115.653 28.0176L116.534 27.5455ZM141.193 27.5455L142.094 27.1122L141.822 26.5455H141.193V27.5455ZM157.102 60.6364L156.201 61.0697L156.473 61.6364H157.102V60.6364ZM157.739 60.6364V61.6364H158.367L158.64 61.0697L157.739 60.6364ZM173.648 27.5455V26.5455H173.019L172.746 27.1122L173.648 27.5455ZM198.307 27.5455L199.188 28.0176L199.977 26.5455H198.307V27.5455ZM168.398 83.3864L167.516 82.9142L167.398 83.1354V83.3864H168.398ZM168.398 109V110H169.398V109H168.398ZM146.443 109H145.443V110H146.443V109ZM146.443 83.3864H147.443V83.1354L147.325 82.9142L146.443 83.3864ZM116.534 28.5455H141.193V26.5455H116.534V28.5455ZM140.292 27.9787L156.201 61.0697L158.004 60.2031L142.094 27.1122L140.292 27.9787ZM157.102 61.6364H157.739V59.6364H157.102V61.6364ZM158.64 61.0697L174.549 27.9787L172.746 27.1122L156.837 60.2031L158.64 61.0697ZM173.648 28.5455H198.307V26.5455H173.648V28.5455ZM197.425 27.0733L167.516 82.9142L169.279 83.8585L199.188 28.0176L197.425 27.0733ZM167.398 83.3864V109H169.398V83.3864H167.398ZM168.398 108H146.443V110H168.398V108ZM147.443 109V83.3864H145.443V109H147.443ZM147.325 82.9142L117.416 27.0733L115.653 28.0176L145.562 83.8585L147.325 82.9142ZM25.9318 245L24.9727 245.283L25.1842 246H25.9318V245ZM1.90909 163.545V162.545H0.571586L0.949935 163.828L1.90909 163.545ZM26.5682 163.545L27.5444 163.329L27.3704 162.545H26.5682V163.545ZM37.7045 213.659L36.7284 213.876L36.9024 214.659H37.7045V213.659ZM38.3409 213.659V214.659H39.1116L39.3079 213.914L38.3409 213.659ZM51.5455 163.545V162.545H50.7748L50.5785 163.291L51.5455 163.545ZM70.9545 163.545L71.9217 163.291L71.7258 162.545H70.9545V163.545ZM84.1591 213.818L83.1919 214.072L83.3878 214.818H84.1591V213.818ZM84.7955 213.818V214.818H85.5982L85.7718 214.034L84.7955 213.818ZM95.9318 163.545V162.545H95.1291L94.9555 163.329L95.9318 163.545ZM120.591 163.545L121.55 163.828L121.928 162.545H120.591V163.545ZM96.5682 245V246H97.3158L97.5273 245.283L96.5682 245ZM75.4091 245L74.4524 245.291L74.668 246H75.4091V245ZM61.5682 199.5L62.5249 199.209L62.3092 198.5H61.5682V199.5ZM60.9318 199.5V198.5H60.1908L59.9751 199.209L60.9318 199.5ZM47.0909 245V246H47.832L48.0476 245.291L47.0909 245ZM26.891 244.717L2.86825 163.263L0.949935 163.828L24.9727 245.283L26.891 244.717ZM1.90909 164.545H26.5682V162.545H1.90909V164.545ZM25.592 163.762L36.7284 213.876L38.6807 213.442L27.5444 163.329L25.592 163.762ZM37.7045 214.659H38.3409V212.659H37.7045V214.659ZM39.3079 213.914L52.5125 163.8L50.5785 163.291L37.3739 213.404L39.3079 213.914ZM51.5455 164.545H70.9545V162.545H51.5455V164.545ZM69.9874 163.799L83.1919 214.072L85.1263 213.564L71.9217 163.291L69.9874 163.799ZM84.1591 214.818H84.7955V212.818H84.1591V214.818ZM85.7718 214.034L96.9082 163.762L94.9555 163.329L83.8191 213.602L85.7718 214.034ZM95.9318 164.545H120.591V162.545H95.9318V164.545ZM119.632 163.263L95.609 244.717L97.5273 245.283L121.55 163.828L119.632 163.263ZM96.5682 244H75.4091V246H96.5682V244ZM76.3658 244.709L62.5249 199.209L60.6115 199.791L74.4524 245.291L76.3658 244.709ZM61.5682 198.5H60.9318V200.5H61.5682V198.5ZM59.9751 199.209L46.1342 244.709L48.0476 245.291L61.8885 199.791L59.9751 199.209ZM47.0909 244H25.9318V246H47.0909V244ZM149.864 163.545H150.864V162.545H149.864V163.545ZM149.864 245V246H150.864V245H149.864ZM127.75 245H126.75V246H127.75V245ZM127.75 163.545V162.545H126.75V163.545H127.75ZM148.864 163.545V245H150.864V163.545H148.864ZM149.864 244H127.75V246H149.864V244ZM128.75 245V163.545H126.75V245H128.75ZM127.75 164.545H149.864V162.545H127.75V164.545ZM158.116 181.364H157.116V182.364H158.116V181.364ZM158.116 163.545V162.545H157.116V163.545H158.116ZM228.912 163.545H229.912V162.545H228.912V163.545ZM228.912 181.364V182.364H229.912V181.364H228.912ZM204.412 181.364V180.364H203.412V181.364H204.412ZM204.412 245V246H205.412V245H204.412ZM182.616 245H181.616V246H182.616V245ZM182.616 181.364H183.616V180.364H182.616V181.364ZM159.116 181.364V163.545H157.116V181.364H159.116ZM158.116 164.545H228.912V162.545H158.116V164.545ZM227.912 163.545V181.364H229.912V163.545H227.912ZM228.912 180.364H204.412V182.364H228.912V180.364ZM203.412 181.364V245H205.412V181.364H203.412ZM204.412 244H182.616V246H204.412V244ZM183.616 245V181.364H181.616V245H183.616ZM182.616 180.364H158.116V182.364H182.616V180.364ZM237.234 245H236.234V246H237.234V245ZM237.234 163.545V162.545H236.234V163.545H237.234ZM259.348 163.545H260.348V162.545H259.348V163.545ZM259.348 195.364H258.348V196.364H259.348V195.364ZM288.621 195.364V196.364H289.621V195.364H288.621ZM288.621 163.545V162.545H287.621V163.545H288.621ZM310.734 163.545H311.734V162.545H310.734V163.545ZM310.734 245V246H311.734V245H310.734ZM288.621 245H287.621V246H288.621V245ZM288.621 213.182H289.621V212.182H288.621V213.182ZM259.348 213.182V212.182H258.348V213.182H259.348ZM259.348 245V246H260.348V245H259.348ZM238.234 245V163.545H236.234V245H238.234ZM237.234 164.545H259.348V162.545H237.234V164.545ZM258.348 163.545V195.364H260.348V163.545H258.348ZM259.348 196.364H288.621V194.364H259.348V196.364ZM289.621 195.364V163.545H287.621V195.364H289.621ZM288.621 164.545H310.734V162.545H288.621V164.545ZM309.734 163.545V245H311.734V163.545H309.734ZM310.734 244H288.621V246H310.734V244ZM289.621 245V213.182H287.621V245H289.621ZM288.621 212.182H259.348V214.182H288.621V212.182ZM258.348 213.182V245H260.348V213.182H258.348ZM259.348 244H237.234V246H259.348V244ZM5.25 299.545V298.545H4.25V299.545H5.25ZM32.7727 299.545L33.6979 299.166L33.4433 298.545H32.7727V299.545ZM51.7045 345.682L50.7794 346.061L51.034 346.682H51.7045V345.682ZM52.6591 345.682V346.682H53.3297L53.5842 346.061L52.6591 345.682ZM71.5909 299.545V298.545H70.9203L70.6658 299.166L71.5909 299.545ZM99.1136 299.545H100.114V298.545H99.1136V299.545ZM99.1136 381V382H100.114V381H99.1136ZM77.4773 381H76.4773V382H77.4773V381ZM77.4773 333.909H78.4773V332.909H77.4773V333.909ZM76.8409 333.909V332.909H76.1578L75.9094 333.545L76.8409 333.909ZM58.7045 380.364V381.364H59.3876L59.6361 380.727L58.7045 380.364ZM45.6591 380.364L44.7267 380.725L44.9743 381.364H45.6591V380.364ZM27.5227 333.591L28.4551 333.229L28.2075 332.591H27.5227V333.591ZM26.8864 333.591V332.591H25.8864V333.591H26.8864ZM26.8864 381V382H27.8864V381H26.8864ZM5.25 381H4.25V382H5.25V381ZM5.25 300.545H32.7727V298.545H5.25V300.545ZM31.8476 299.925L50.7794 346.061L52.6297 345.302L33.6979 299.166L31.8476 299.925ZM51.7045 346.682H52.6591V344.682H51.7045V346.682ZM53.5842 346.061L72.5161 299.925L70.6658 299.166L51.734 345.302L53.5842 346.061ZM71.5909 300.545H99.1136V298.545H71.5909V300.545ZM98.1136 299.545V381H100.114V299.545H98.1136ZM99.1136 380H77.4773V382H99.1136V380ZM78.4773 381V333.909H76.4773V381H78.4773ZM77.4773 332.909H76.8409V334.909H77.4773V332.909ZM75.9094 333.545L57.773 380L59.6361 380.727L77.7724 334.273L75.9094 333.545ZM58.7045 379.364H45.6591V381.364H58.7045V379.364ZM46.5915 380.002L28.4551 333.229L26.5904 333.952L44.7267 380.725L46.5915 380.002ZM27.5227 332.591H26.8864V334.591H27.5227V332.591ZM25.8864 333.591V381H27.8864V333.591H25.8864ZM26.8864 380H5.25V382H26.8864V380ZM6.25 381V299.545H4.25V381H6.25ZM109.594 381H108.594V382H109.594V381ZM109.594 299.545V298.545H108.594V299.545H109.594ZM168.298 299.545H169.298V298.545H168.298V299.545ZM168.298 317.364V318.364H169.298V317.364H168.298ZM131.707 317.364V316.364H130.707V317.364H131.707ZM131.707 331.364H130.707V332.364H131.707V331.364ZM165.276 331.364H166.276V330.364H165.276V331.364ZM165.276 349.182V350.182H166.276V349.182H165.276ZM131.707 349.182V348.182H130.707V349.182H131.707ZM131.707 363.182H130.707V364.182H131.707V363.182ZM168.139 363.182H169.139V362.182H168.139V363.182ZM168.139 381V382H169.139V381H168.139ZM110.594 381V299.545H108.594V381H110.594ZM109.594 300.545H168.298V298.545H109.594V300.545ZM167.298 299.545V317.364H169.298V299.545H167.298ZM168.298 316.364H131.707V318.364H168.298V316.364ZM130.707 317.364V331.364H132.707V317.364H130.707ZM131.707 332.364H165.276V330.364H131.707V332.364ZM164.276 331.364V349.182H166.276V331.364H164.276ZM165.276 348.182H131.707V350.182H165.276V348.182ZM130.707 349.182V363.182H132.707V349.182H130.707ZM131.707 364.182H168.139V362.182H131.707V364.182ZM167.139 363.182V381H169.139V363.182H167.139ZM168.139 380H109.594V382H168.139V380ZM183.601 379.051L182.894 379.758L182.902 379.767L183.601 379.051ZM180.379 371.136L181.379 371.145L181.379 371.136L181.379 371.128L180.379 371.136ZM183.601 363.381L182.902 362.665L182.898 362.669L183.601 363.381ZM199.232 363.381L198.537 364.101L198.542 364.105L199.232 363.381ZM202.652 371.136L203.652 371.149L203.652 371.138L203.652 371.128L202.652 371.136ZM201.021 376.784L200.173 376.254L200.171 376.258L201.021 376.784ZM196.964 380.801L197.471 381.663L197.481 381.657L196.964 380.801ZM191.516 381.273C188.701 381.273 186.313 380.301 184.299 378.335L182.902 379.767C185.29 382.097 188.179 383.273 191.516 383.273V381.273ZM184.308 378.344C182.325 376.361 181.355 373.982 181.379 371.145L179.379 371.128C179.351 374.496 180.528 377.392 182.894 379.758L184.308 378.344ZM181.379 371.128C181.355 368.379 182.319 366.052 184.304 364.092L182.898 362.669C180.534 365.005 179.35 367.849 179.379 371.145L181.379 371.128ZM184.299 364.096C186.313 362.131 188.701 361.159 191.516 361.159V359.159C188.179 359.159 185.29 360.335 182.902 362.665L184.299 364.096ZM191.516 361.159C194.156 361.159 196.484 362.12 198.537 364.101L199.926 362.661C197.525 360.345 194.708 359.159 191.516 359.159V361.159ZM198.542 364.105C200.606 366.072 201.628 368.402 201.652 371.145L203.652 371.128C203.623 367.825 202.364 364.985 199.921 362.657L198.542 364.105ZM201.652 371.124C201.628 373.015 201.134 374.718 200.173 376.254L201.869 377.314C203.03 375.457 203.623 373.394 203.652 371.149L201.652 371.124ZM200.171 376.258C199.22 377.794 197.982 379.02 196.448 379.945L197.481 381.657C199.288 380.567 200.755 379.115 201.872 377.31L200.171 376.258ZM196.458 379.939C194.943 380.829 193.302 381.273 191.516 381.273V383.273C193.653 383.273 195.645 382.736 197.471 381.663L196.458 379.939ZM218.601 379.051L217.894 379.758L217.902 379.767L218.601 379.051ZM215.379 371.136L216.379 371.145L216.379 371.136L216.379 371.128L215.379 371.136ZM218.601 363.381L217.902 362.665L217.898 362.669L218.601 363.381ZM234.232 363.381L233.537 364.101L233.542 364.105L234.232 363.381ZM237.652 371.136L238.652 371.149L238.652 371.138L238.652 371.128L237.652 371.136ZM236.021 376.784L235.173 376.254L235.171 376.258L236.021 376.784ZM231.964 380.801L232.471 381.663L232.481 381.657L231.964 380.801ZM226.516 381.273C223.701 381.273 221.313 380.301 219.299 378.335L217.902 379.767C220.29 382.097 223.179 383.273 226.516 383.273V381.273ZM219.308 378.344C217.325 376.361 216.355 373.982 216.379 371.145L214.379 371.128C214.351 374.496 215.528 377.392 217.894 379.758L219.308 378.344ZM216.379 371.128C216.355 368.379 217.319 366.052 219.304 364.092L217.898 362.669C215.534 365.005 214.35 367.849 214.379 371.145L216.379 371.128ZM219.299 364.096C221.313 362.131 223.701 361.159 226.516 361.159V359.159C223.179 359.159 220.29 360.335 217.902 362.665L219.299 364.096ZM226.516 361.159C229.156 361.159 231.484 362.12 233.537 364.101L234.926 362.661C232.525 360.345 229.708 359.159 226.516 359.159V361.159ZM233.542 364.105C235.606 366.072 236.628 368.402 236.652 371.145L238.652 371.128C238.623 367.825 237.364 364.985 234.921 362.657L233.542 364.105ZM236.652 371.124C236.628 373.015 236.134 374.718 235.173 376.254L236.869 377.314C238.03 375.457 238.623 373.394 238.652 371.149L236.652 371.124ZM235.171 376.258C234.22 377.794 232.982 379.02 231.448 379.945L232.481 381.657C234.288 380.567 235.755 379.115 236.872 377.31L235.171 376.258ZM231.458 379.939C229.943 380.829 228.302 381.273 226.516 381.273V383.273C228.653 383.273 230.645 382.736 232.471 381.663L231.458 379.939ZM253.601 379.051L252.894 379.758L252.902 379.767L253.601 379.051ZM250.379 371.136L251.379 371.145L251.379 371.136L251.379 371.128L250.379 371.136ZM253.601 363.381L252.902 362.665L252.898 362.669L253.601 363.381ZM269.232 363.381L268.537 364.101L268.542 364.105L269.232 363.381ZM272.652 371.136L273.652 371.149L273.652 371.138L273.652 371.128L272.652 371.136ZM271.021 376.784L270.173 376.254L270.171 376.258L271.021 376.784ZM266.964 380.801L267.471 381.663L267.481 381.657L266.964 380.801ZM261.516 381.273C258.701 381.273 256.313 380.301 254.299 378.335L252.902 379.767C255.29 382.097 258.179 383.273 261.516 383.273V381.273ZM254.308 378.344C252.325 376.361 251.355 373.982 251.379 371.145L249.379 371.128C249.351 374.496 250.528 377.392 252.894 379.758L254.308 378.344ZM251.379 371.128C251.355 368.379 252.319 366.052 254.304 364.092L252.898 362.669C250.534 365.005 249.35 367.849 249.379 371.145L251.379 371.128ZM254.299 364.096C256.313 362.131 258.701 361.159 261.516 361.159V359.159C258.179 359.159 255.29 360.335 252.902 362.665L254.299 364.096ZM261.516 361.159C264.156 361.159 266.484 362.12 268.537 364.101L269.926 362.661C267.525 360.345 264.708 359.159 261.516 359.159V361.159ZM268.542 364.105C270.606 366.072 271.628 368.402 271.652 371.145L273.652 371.128C273.623 367.825 272.364 364.985 269.921 362.657L268.542 364.105ZM271.652 371.124C271.628 373.015 271.134 374.718 270.173 376.254L271.869 377.314C273.03 375.457 273.623 373.394 273.652 371.149L271.652 371.124ZM270.171 376.258C269.22 377.794 267.982 379.02 266.448 379.945L267.481 381.657C269.288 380.567 270.755 379.115 271.872 377.31L270.171 376.258ZM266.458 379.939C264.943 380.829 263.302 381.273 261.516 381.273V383.273C263.653 383.273 265.645 382.736 267.471 381.663L266.458 379.939Z" fill="#2F527A"/>
<path d="M115.11 409.97H121.11L120.6 412.34H114.57L115.11 409.97ZM129.241 422.42C128.501 422.42 127.851 422.36 127.291 422.24C126.731 422.12 126.241 421.83 125.821 421.37C125.421 420.91 125.221 420.2 125.221 419.24C125.221 417.9 125.621 416.1 126.421 413.84C127.241 411.58 128.311 409.31 129.631 407.03C128.631 407.09 127.841 407.24 127.261 407.48C126.681 407.72 126.301 408.09 126.121 408.59C126.201 408.59 126.281 408.69 126.361 408.89C126.461 409.09 126.511 409.3 126.511 409.52C126.511 409.88 126.351 410.17 126.031 410.39C125.711 410.59 125.311 410.69 124.831 410.69C124.271 410.69 123.821 410.54 123.481 410.24C123.141 409.94 122.971 409.51 122.971 408.95C122.971 408.27 123.231 407.65 123.751 407.09C124.291 406.53 125.031 406.09 125.971 405.77C126.911 405.43 127.951 405.26 129.091 405.26C129.511 405.26 130.031 405.29 130.651 405.35C132.291 402.75 134.021 400.63 135.841 398.99C137.681 397.33 139.431 396.5 141.091 396.5C142.051 396.5 142.841 396.64 143.461 396.92L138.751 419H134.431L136.741 408.11C136.001 407.77 135.321 407.52 134.701 407.36C134.081 407.2 133.421 407.09 132.721 407.03C131.581 409.49 130.641 412.01 129.901 414.59C129.181 417.15 128.821 419.2 128.821 420.74C128.821 421.5 128.961 422.06 129.241 422.42ZM138.751 398.63C137.891 399.09 136.991 399.95 136.051 401.21C135.131 402.45 134.231 403.96 133.351 405.74C134.791 406.02 136.011 406.37 137.011 406.79L138.751 398.63ZM146.73 419.18C145.37 419.18 144.33 418.85 143.61 418.19C142.89 417.51 142.53 416.56 142.53 415.34C142.53 414.74 142.6 414.17 142.74 413.63L145.95 398.6L150.39 398L148.95 404.75C149.51 404.41 149.97 404.19 150.33 404.09C150.69 403.97 151.05 403.91 151.41 403.91C153.77 403.91 154.95 405.62 154.95 409.04C154.95 410.42 154.68 411.9 154.14 413.48C153.62 415.04 152.74 416.38 151.5 417.5C150.28 418.62 148.69 419.18 146.73 419.18ZM148.41 416.27C149.03 416.27 149.61 415.89 150.15 415.13C150.69 414.35 151.12 413.39 151.44 412.25C151.76 411.09 151.92 409.98 151.92 408.92C151.92 408.12 151.78 407.44 151.5 406.88C151.22 406.32 150.83 406.04 150.33 406.04C150.03 406.04 149.69 406.09 149.31 406.19C148.95 406.27 148.7 406.4 148.56 406.58L146.91 414.2C146.85 414.44 146.82 414.67 146.82 414.89C146.82 415.81 147.35 416.27 148.41 416.27ZM159.67 419.18C158.53 419.18 157.58 418.79 156.82 418.01C156.06 417.23 155.68 416.01 155.68 414.35C155.68 412.87 155.97 411.32 156.55 409.7C157.15 408.06 158.03 406.68 159.19 405.56C160.37 404.42 161.77 403.85 163.39 403.85C164.21 403.85 164.82 403.99 165.22 404.27C165.62 404.55 165.82 404.92 165.82 405.38V405.5L167.29 398.6L171.73 398L168.28 414.2C168.2 414.5 168.16 414.82 168.16 415.16C168.16 415.56 168.25 415.85 168.43 416.03C168.63 416.19 168.95 416.27 169.39 416.27C169.95 416.27 170.43 416.03 170.83 415.55C171.25 415.07 171.58 414.43 171.82 413.63H173.08C171.86 417.21 169.85 419 167.05 419C166.23 419 165.56 418.78 165.04 418.34C164.54 417.9 164.23 417.26 164.11 416.42C163.59 417.22 162.96 417.88 162.22 418.4C161.5 418.92 160.65 419.18 159.67 419.18ZM161.62 416.27C162.1 416.27 162.58 416.05 163.06 415.61C163.56 415.17 163.9 414.56 164.08 413.78V413.63L165.55 406.76C165.37 406.06 164.96 405.71 164.32 405.71C163.52 405.71 162.8 406.18 162.16 407.12C161.52 408.04 161.02 409.16 160.66 410.48C160.3 411.78 160.12 412.93 160.12 413.93C160.12 414.93 160.26 415.57 160.54 415.85C160.84 416.13 161.2 416.27 161.62 416.27ZM174.802 419.18C173.842 419.18 173.062 418.88 172.462 418.28C171.882 417.68 171.592 416.78 171.592 415.58C171.592 415.08 171.672 414.43 171.832 413.63L173.872 404H178.192L176.032 414.2C175.972 414.5 175.942 414.78 175.942 415.04C175.942 415.86 176.242 416.27 176.842 416.27C177.402 416.27 177.882 416.04 178.282 415.58C178.682 415.1 179.002 414.45 179.242 413.63L181.282 404H185.602L183.442 414.2C183.362 414.5 183.322 414.82 183.322 415.16C183.322 415.56 183.412 415.85 183.592 416.03C183.792 416.19 184.112 416.27 184.552 416.27C185.112 416.27 185.592 416.03 185.992 415.55C186.412 415.07 186.742 414.43 186.982 413.63H188.242C187.502 415.79 186.582 417.26 185.482 418.04C184.402 418.8 183.312 419.18 182.212 419.18C181.352 419.18 180.662 418.94 180.142 418.46C179.642 417.98 179.342 417.27 179.242 416.33C178.562 417.43 177.842 418.18 177.082 418.58C176.342 418.98 175.582 419.18 174.802 419.18ZM189.889 419.18C188.929 419.18 188.149 418.88 187.549 418.28C186.969 417.66 186.679 416.74 186.679 415.52C186.679 415.02 186.759 414.37 186.919 413.57L190.129 398.54L194.569 397.94L191.119 414.14C191.039 414.44 190.999 414.73 190.999 415.01C190.999 415.81 191.409 416.21 192.229 416.21C192.589 416.21 192.909 416.15 193.189 416.03C193.109 417.03 192.749 417.81 192.109 418.37C191.489 418.91 190.749 419.18 189.889 419.18ZM212.773 419.51C211.213 419.51 210.433 418.84 210.433 417.5C210.433 417.06 210.493 416.56 210.613 416C210.753 415.42 210.943 414.68 211.183 413.78C211.463 412.84 211.673 412.04 211.813 411.38C211.953 410.72 212.023 410.13 212.023 409.61C212.023 408.25 211.423 407.57 210.223 407.57C209.903 407.57 209.573 407.61 209.233 407.69L206.833 419H202.513L206.593 399.92L211.033 399.32L209.563 406.25H209.803C210.583 406.25 211.303 405.98 211.963 405.44C212.623 404.9 213.133 404.23 213.493 403.43C213.873 402.61 214.063 401.81 214.063 401.03C214.063 400.11 213.783 399.36 213.223 398.78C212.683 398.18 211.863 397.88 210.763 397.88C209.143 397.88 207.723 398.17 206.503 398.75C205.283 399.33 204.333 400.17 203.653 401.27C202.993 402.37 202.663 403.67 202.663 405.17C202.663 405.91 202.733 406.43 202.873 406.73C203.013 407.01 203.083 407.17 203.083 407.21C202.003 407.21 201.193 406.99 200.653 406.55C200.133 406.09 199.873 405.34 199.873 404.3C199.873 403.02 200.393 401.78 201.433 400.58C202.493 399.36 203.843 398.38 205.483 397.64C207.123 396.88 208.763 396.5 210.403 396.5C211.903 396.5 213.163 396.72 214.183 397.16C215.203 397.6 215.963 398.19 216.463 398.93C216.963 399.65 217.213 400.44 217.213 401.3C217.213 402.24 216.923 403.18 216.343 404.12C215.763 405.06 214.973 405.83 213.973 406.43C214.733 406.65 215.263 407.02 215.563 407.54C215.883 408.04 216.043 408.67 216.043 409.43C216.043 410.01 215.973 410.63 215.833 411.29C215.693 411.93 215.493 412.73 215.233 413.69C215.073 414.31 214.923 414.92 214.783 415.52C214.643 416.12 214.573 416.62 214.573 417.02C214.573 417.48 214.673 417.89 214.873 418.25C215.093 418.61 215.383 418.86 215.743 419C214.523 419.34 213.533 419.51 212.773 419.51ZM221.311 419.18C220.171 419.18 219.221 418.79 218.461 418.01C217.701 417.23 217.321 416.01 217.321 414.35C217.321 412.87 217.611 411.32 218.191 409.7C218.791 408.06 219.671 406.68 220.831 405.56C222.011 404.42 223.411 403.85 225.031 403.85C225.851 403.85 226.461 403.99 226.861 404.27C227.261 404.55 227.461 404.92 227.461 405.38V405.59L227.791 404H232.111L229.951 414.2C229.871 414.5 229.831 414.82 229.831 415.16C229.831 416.02 230.241 416.45 231.061 416.45C231.621 416.45 232.101 416.19 232.501 415.67C232.921 415.15 233.251 414.47 233.491 413.63H234.751C234.011 415.79 233.091 417.26 231.991 418.04C230.911 418.8 229.821 419.18 228.721 419.18C227.881 419.18 227.201 418.95 226.681 418.49C226.181 418.01 225.881 417.32 225.781 416.42C225.201 417.24 224.551 417.91 223.831 418.43C223.131 418.93 222.291 419.18 221.311 419.18ZM223.261 416.27C223.761 416.27 224.251 416.04 224.731 415.58C225.231 415.1 225.571 414.45 225.751 413.63L227.191 406.85C227.191 406.59 227.091 406.34 226.891 406.1C226.691 405.84 226.381 405.71 225.961 405.71C225.161 405.71 224.441 406.18 223.801 407.12C223.161 408.04 222.661 409.16 222.301 410.48C221.941 411.78 221.761 412.93 221.761 413.93C221.761 414.93 221.901 415.57 222.181 415.85C222.481 416.13 222.841 416.27 223.261 416.27ZM237.882 419.12C236.402 419.12 235.232 418.74 234.372 417.98C233.512 417.22 233.082 416.02 233.082 414.38C233.082 413.02 233.362 411.51 233.922 409.85C234.482 408.19 235.382 406.76 236.622 405.56C237.862 404.34 239.422 403.73 241.302 403.73C243.862 403.73 245.142 405.33 245.142 408.53V408.56C245.202 408.58 245.312 408.59 245.472 408.59C246.132 408.59 246.892 408.42 247.752 408.08C248.612 407.72 249.392 407.29 250.092 406.79L250.362 407.6C249.782 408.22 249.022 408.75 248.082 409.19C247.162 409.61 246.152 409.91 245.052 410.09C244.892 411.91 244.482 413.5 243.822 414.86C243.162 416.22 242.312 417.27 241.272 418.01C240.232 418.75 239.102 419.12 237.882 419.12ZM239.082 416.42C239.562 416.42 240.042 416.15 240.522 415.61C241.002 415.05 241.422 414.3 241.782 413.36C242.142 412.4 242.402 411.34 242.562 410.18C242.022 410.06 241.752 409.64 241.752 408.92C241.752 408.1 242.062 407.56 242.682 407.3C242.642 406.64 242.542 406.19 242.382 405.95C242.222 405.69 241.942 405.56 241.542 405.56C240.882 405.56 240.242 406.04 239.622 407C239.002 407.96 238.502 409.11 238.122 410.45C237.742 411.79 237.552 412.97 237.552 413.99C237.552 414.95 237.662 415.6 237.882 415.94C238.102 416.26 238.502 416.42 239.082 416.42ZM251.066 419.12C249.586 419.12 248.416 418.74 247.556 417.98C246.696 417.22 246.266 416.02 246.266 414.38C246.266 413.02 246.546 411.51 247.106 409.85C247.666 408.19 248.566 406.76 249.806 405.56C251.046 404.34 252.606 403.73 254.486 403.73C257.046 403.73 258.326 405.33 258.326 408.53V408.56C258.386 408.58 258.496 408.59 258.656 408.59C259.316 408.59 260.076 408.42 260.936 408.08C261.796 407.72 262.576 407.29 263.276 406.79L263.546 407.6C262.966 408.22 262.206 408.75 261.266 409.19C260.346 409.61 259.336 409.91 258.236 410.09C258.076 411.91 257.666 413.5 257.006 414.86C256.346 416.22 255.496 417.27 254.456 418.01C253.416 418.75 252.286 419.12 251.066 419.12ZM252.266 416.42C252.746 416.42 253.226 416.15 253.706 415.61C254.186 415.05 254.606 414.3 254.966 413.36C255.326 412.4 255.586 411.34 255.746 410.18C255.206 410.06 254.936 409.64 254.936 408.92C254.936 408.1 255.246 407.56 255.866 407.3C255.826 406.64 255.726 406.19 255.566 405.95C255.406 405.69 255.126 405.56 254.726 405.56C254.066 405.56 253.426 406.04 252.806 407C252.186 407.96 251.686 409.11 251.306 410.45C250.926 411.79 250.736 412.97 250.736 413.99C250.736 414.95 250.846 415.6 251.066 415.94C251.286 416.26 251.686 416.42 252.266 416.42ZM257.169 426.5C256.229 426.5 255.409 426.19 254.709 425.57C253.989 424.97 253.629 424.2 253.629 423.26C253.629 422.4 253.849 421.69 254.289 421.13C254.729 420.57 255.299 420.12 255.999 419.78C256.699 419.46 257.629 419.12 258.789 418.76L262.419 401.63C262.819 399.71 263.519 398.38 264.519 397.64C265.539 396.9 266.659 396.53 267.879 396.53C268.819 396.53 269.639 396.84 270.339 397.46C271.059 398.06 271.419 398.83 271.419 399.77C271.419 400.23 271.389 400.64 271.329 401H269.919C269.959 400.56 269.979 400.29 269.979 400.19C269.979 399.87 269.869 399.62 269.649 399.44C269.429 399.26 269.159 399.17 268.839 399.17C268.419 399.17 268.009 399.36 267.609 399.74C267.209 400.1 266.919 400.73 266.739 401.63L266.229 404H268.419L268.209 405.2H265.989L262.539 421.4C262.139 423.34 261.449 424.67 260.469 425.39C259.489 426.13 258.389 426.5 257.169 426.5ZM256.479 423.83C257.279 423.83 257.849 423.05 258.189 421.49L258.579 419.75C257.519 420.11 256.709 420.52 256.149 420.98C255.569 421.46 255.279 422.08 255.279 422.84C255.279 423.08 255.399 423.3 255.639 423.5C255.879 423.72 256.159 423.83 256.479 423.83ZM287.451 419.51C285.891 419.51 285.111 418.84 285.111 417.5C285.111 417.06 285.171 416.56 285.291 416C285.431 415.42 285.621 414.68 285.861 413.78C286.141 412.84 286.351 412.04 286.491 411.38C286.631 410.72 286.701 410.13 286.701 409.61C286.701 408.25 286.101 407.57 284.901 407.57C284.561 407.57 284.231 407.61 283.911 407.69L281.511 419H277.191L281.541 398.6C280.201 399.16 279.161 400 278.421 401.12C277.701 402.24 277.341 403.59 277.341 405.17C277.341 405.91 277.411 406.43 277.551 406.73C277.691 407.01 277.761 407.17 277.761 407.21C276.681 407.21 275.871 406.99 275.331 406.55C274.811 406.09 274.551 405.34 274.551 404.3C274.551 403.02 275.071 401.78 276.111 400.58C277.171 399.36 278.521 398.38 280.161 397.64C281.801 396.88 283.441 396.5 285.081 396.5C285.361 396.5 285.761 396.52 286.281 396.56L284.331 405.74L287.421 401.6C289.881 398.28 291.121 396.63 291.141 396.65H294.291L285.951 406.25L287.001 406.22C288.361 406.22 289.321 406.51 289.881 407.09C290.441 407.65 290.721 408.43 290.721 409.43C290.721 410.01 290.651 410.63 290.511 411.29C290.371 411.93 290.171 412.73 289.911 413.69C289.751 414.31 289.601 414.92 289.461 415.52C289.321 416.12 289.251 416.62 289.251 417.02C289.251 417.48 289.351 417.89 289.551 418.25C289.771 418.61 290.061 418.86 290.421 419C289.201 419.34 288.211 419.51 287.451 419.51ZM302.019 398.39C300.499 398.89 299.319 399.72 298.479 400.88C297.659 402.02 297.249 403.44 297.249 405.14C297.249 405.9 297.319 406.42 297.459 406.7C297.599 406.98 297.669 407.15 297.669 407.21C295.529 407.21 294.459 406.3 294.459 404.48C294.459 403.24 294.929 402 295.869 400.76C296.829 399.5 298.049 398.48 299.529 397.7C301.029 396.9 302.519 396.5 303.999 396.5C304.739 396.5 305.499 396.64 306.279 396.92L305.589 412.73L312.189 396.92H316.509L313.359 419H309.039L310.959 405.53L305.319 419H301.209L301.809 405.47L296.799 419H294.399L302.019 398.39Z" fill="white"/>
</svg>
