<svg width="339" height="82" viewBox="0 0 339 82" fill="none" xmlns="http://www.w3.org/2000/svg">
<path d="M28.34 66.105C24.96 66.105 23.27 64.6533 23.27 61.75C23.27 60.7967 23.4 59.7133 23.66 58.5C23.9633 57.2433 24.375 55.64 24.895 53.69C25.5017 51.6533 25.9567 49.92 26.26 48.49C26.5633 47.06 26.715 45.7817 26.715 44.655C26.715 41.7083 25.415 40.235 22.815 40.235C22.0783 40.235 21.3633 40.3217 20.67 40.495L15.47 65H6.11L15.535 20.8C12.6317 22.0133 10.3783 23.8333 8.775 26.26C7.215 28.6867 6.435 31.6117 6.435 35.035C6.435 36.6383 6.58667 37.765 6.89 38.415C7.19333 39.0217 7.345 39.3683 7.345 39.455C5.005 39.455 3.25 38.9783 2.08 38.025C0.953333 37.0283 0.39 35.4033 0.39 33.15C0.39 30.3767 1.51667 27.69 3.77 25.09C6.06667 22.4467 8.99167 20.3233 12.545 18.72C16.0983 17.0733 19.6517 16.25 23.205 16.25C23.8117 16.25 24.6783 16.2933 25.805 16.38L21.58 36.27L28.275 27.3C33.605 20.1067 36.2917 16.5317 36.335 16.575H43.16L25.09 37.375L27.365 37.31C30.3117 37.31 32.3917 37.9383 33.605 39.195C34.8183 40.4083 35.425 42.0983 35.425 44.265C35.425 45.5217 35.2733 46.865 34.97 48.295C34.6667 49.6817 34.2333 51.415 33.67 53.495C33.3233 54.8383 32.9983 56.16 32.695 57.46C32.3917 58.76 32.24 59.8433 32.24 60.71C32.24 61.7067 32.4567 62.595 32.89 63.375C33.3667 64.155 33.995 64.6967 34.775 65C32.1317 65.7367 29.9867 66.105 28.34 66.105ZM67.3781 66.105C63.9981 66.105 62.3081 64.6533 62.3081 61.75C62.3081 60.7967 62.4381 59.7133 62.6981 58.5C63.0014 57.2433 63.4131 55.64 63.9331 53.69C64.5398 51.6533 64.9948 49.92 65.2981 48.49C65.6014 47.06 65.7531 45.7817 65.7531 44.655C65.7531 41.7083 64.4531 40.235 61.8531 40.235C61.1164 40.235 60.4014 40.3217 59.7081 40.495L54.5081 65H45.1481L54.5731 20.8C51.6698 22.0133 49.4164 23.8333 47.8131 26.26C46.2531 28.6867 45.4731 31.6117 45.4731 35.035C45.4731 36.6383 45.6248 37.765 45.9281 38.415C46.2314 39.0217 46.3831 39.3683 46.3831 39.455C44.0431 39.455 42.2881 38.9783 41.1181 38.025C39.9914 37.0283 39.4281 35.4033 39.4281 33.15C39.4281 30.3767 40.5548 27.69 42.8081 25.09C45.1048 22.4467 48.0298 20.3233 51.5831 18.72C55.1364 17.0733 58.6898 16.25 62.2431 16.25C62.8498 16.25 63.7164 16.2933 64.8431 16.38L60.6181 36.27L67.3131 27.3C72.6431 20.1067 75.3298 16.5317 75.3731 16.575H82.1981L64.1281 37.375L66.4031 37.31C69.3498 37.31 71.4298 37.9383 72.6431 39.195C73.8564 40.4083 74.4631 42.0983 74.4631 44.265C74.4631 45.5217 74.3114 46.865 74.0081 48.295C73.7048 49.6817 73.2714 51.415 72.7081 53.495C72.3614 54.8383 72.0364 56.16 71.7331 57.46C71.4298 58.76 71.2781 59.8433 71.2781 60.71C71.2781 61.7067 71.4948 62.595 71.9281 63.375C72.4048 64.155 73.0331 64.6967 73.8131 65C71.1698 65.7367 69.0248 66.105 67.3781 66.105ZM111.603 21.97H110.823C106.966 21.97 103.955 22.945 101.788 24.895C99.6646 26.8017 98.603 30.2033 98.603 35.1C98.603 36.7033 98.7546 37.83 99.058 38.48C99.3613 39.0867 99.513 39.4333 99.513 39.52C97.173 39.52 95.418 39.0433 94.248 38.09C93.1213 37.0933 92.558 35.4683 92.558 33.215C92.558 30.1383 93.3163 27.3433 94.833 24.83C96.3496 22.2733 98.7546 20.215 102.048 18.655C105.385 17.095 109.61 16.315 114.723 16.315C117.583 16.315 120.66 16.575 123.953 17.095C126.726 17.5717 129.196 17.81 131.363 17.81C134.136 17.81 136.65 17.355 138.903 16.445C138.816 19.2617 138.101 21.3417 136.758 22.685C135.415 24.0283 133.421 24.7 130.778 24.7C129.391 24.7 128.005 24.5917 126.618 24.375C125.231 24.1583 123.26 23.79 120.703 23.27L111.733 65H102.373L111.603 21.97ZM151.802 66.105C148.422 66.105 146.732 64.6533 146.732 61.75C146.732 60.7967 146.862 59.7133 147.122 58.5C147.425 57.2433 147.837 55.64 148.357 53.69C148.964 51.6533 149.419 49.92 149.722 48.49C150.025 47.06 150.177 45.7817 150.177 44.655C150.177 41.7083 148.877 40.235 146.277 40.235C145.584 40.235 144.869 40.3217 144.132 40.495L138.932 65H129.572L138.412 23.66L148.032 22.36L144.847 37.375H145.367C147.057 37.375 148.617 36.79 150.047 35.62C151.477 34.45 152.582 32.9983 153.362 31.265C154.185 29.4883 154.597 27.755 154.597 26.065C154.597 24.0717 153.99 22.4467 152.777 21.19C151.607 19.89 149.83 19.24 147.447 19.24C143.937 19.24 140.86 19.8683 138.217 21.125C135.574 22.3817 133.515 24.2017 132.042 26.585C130.612 28.9683 129.897 31.785 129.897 35.035C129.897 36.6383 130.049 37.765 130.352 38.415C130.655 39.0217 130.807 39.3683 130.807 39.455C128.467 39.455 126.712 38.9783 125.542 38.025C124.415 37.0283 123.852 35.4033 123.852 33.15C123.852 30.3767 124.979 27.69 127.232 25.09C129.529 22.4467 132.454 20.3233 136.007 18.72C139.56 17.0733 143.114 16.25 146.667 16.25C149.917 16.25 152.647 16.7267 154.857 17.68C157.067 18.6333 158.714 19.9117 159.797 21.515C160.88 23.075 161.422 24.7867 161.422 26.65C161.422 28.6867 160.794 30.7233 159.537 32.76C158.28 34.7967 156.569 36.465 154.402 37.765C156.049 38.2417 157.197 39.0433 157.847 40.17C158.54 41.2533 158.887 42.6183 158.887 44.265C158.887 45.5217 158.735 46.865 158.432 48.295C158.129 49.6817 157.695 51.415 157.132 53.495C156.785 54.8383 156.46 56.16 156.157 57.46C155.854 58.76 155.702 59.8433 155.702 60.71C155.702 61.7067 155.919 62.595 156.352 63.375C156.829 64.155 157.457 64.6967 158.237 65C155.594 65.7367 153.449 66.105 151.802 66.105ZM176.67 72.41C175.067 72.41 173.658 72.28 172.445 72.02C171.232 71.76 170.17 71.1317 169.26 70.135C168.393 69.1383 167.96 67.6 167.96 65.52C167.96 62.6167 168.827 58.7167 170.56 53.82C172.337 48.9233 174.655 44.005 177.515 39.065C175.348 39.195 173.637 39.52 172.38 40.04C171.123 40.56 170.3 41.3617 169.91 42.445C170.083 42.445 170.257 42.6617 170.43 43.095C170.647 43.5283 170.755 43.9833 170.755 44.46C170.755 45.24 170.408 45.8683 169.715 46.345C169.022 46.7783 168.155 46.995 167.115 46.995C165.902 46.995 164.927 46.67 164.19 46.02C163.453 45.37 163.085 44.4383 163.085 43.225C163.085 41.7517 163.648 40.4083 164.775 39.195C165.945 37.9817 167.548 37.0283 169.585 36.335C171.622 35.5983 173.875 35.23 176.345 35.23C177.255 35.23 178.382 35.295 179.725 35.425C183.278 29.7917 187.027 25.1983 190.97 21.645C194.957 18.0483 198.748 16.25 202.345 16.25C204.425 16.25 206.137 16.5533 207.48 17.16L197.275 65H187.915L192.92 41.405C191.317 40.6683 189.843 40.1267 188.5 39.78C187.157 39.4333 185.727 39.195 184.21 39.065C181.74 44.395 179.703 49.855 178.1 55.445C176.54 60.9917 175.76 65.4333 175.76 68.77C175.76 70.4167 176.063 71.63 176.67 72.41ZM197.275 20.865C195.412 21.8617 193.462 23.725 191.425 26.455C189.432 29.1417 187.482 32.4133 185.575 36.27C188.695 36.8767 191.338 37.635 193.505 38.545L197.275 20.865ZM222.038 20.605C218.961 21.775 216.578 23.595 214.888 26.065C213.198 28.4917 212.353 31.4817 212.353 35.035C212.353 36.6383 212.505 37.765 212.808 38.415C213.111 39.0217 213.263 39.3683 213.263 39.455C210.923 39.455 209.168 38.9783 207.998 38.025C206.871 37.0283 206.308 35.4033 206.308 33.15C206.308 30.3767 207.435 27.69 209.688 25.09C211.985 22.4467 214.91 20.3233 218.463 18.72C222.016 17.0733 225.57 16.25 229.123 16.25C229.73 16.25 230.596 16.2933 231.723 16.38L232.308 56.355L245.958 16.575H250.508L232.438 65H223.078L222.038 20.605ZM258.323 66.17C254.38 66.17 251.39 65.0867 249.353 62.92C247.36 60.7533 246.363 58.0233 246.363 54.73C246.363 52.39 246.84 50.05 247.793 47.71C248.79 45.3267 250.198 43.2467 252.018 41.47C253.838 39.6933 255.962 38.5017 258.388 37.895C257.045 36.9417 256.048 35.7933 255.398 34.45C254.748 33.0633 254.423 31.6117 254.423 30.095C254.423 27.8417 255.03 25.6317 256.243 23.465C257.5 21.2983 259.212 19.5433 261.378 18.2C263.588 16.8133 266.015 16.12 268.658 16.12C271.388 16.12 273.62 16.835 275.353 18.265C277.087 19.695 277.953 21.6883 277.953 24.245C277.953 26.1517 277.477 27.755 276.523 29.055C275.57 30.355 274.443 31.005 273.143 31.005C271.973 31.005 270.955 30.42 270.088 29.25C270.868 28.99 271.54 28.275 272.103 27.105C272.667 25.935 272.948 24.765 272.948 23.595C272.948 22.3383 272.602 21.4283 271.908 20.865C271.215 20.2583 270.37 19.955 269.373 19.955C268.117 19.955 266.968 20.41 265.928 21.32C264.932 22.1867 264.152 23.335 263.588 24.765C263.025 26.1517 262.743 27.6033 262.743 29.12C262.743 31.2 263.285 33.0417 264.368 34.645C265.452 36.205 267.098 37.2667 269.308 37.83C267.098 38.3067 265.105 39.39 263.328 41.08C261.552 42.77 260.165 44.7417 259.168 46.995C258.172 49.205 257.673 51.3283 257.673 53.365C257.673 55.315 258.172 56.8967 259.168 58.11C260.208 59.3233 261.768 59.93 263.848 59.93C266.015 59.93 268.268 59.345 270.608 58.175C272.992 56.9617 274.747 55.3367 275.873 53.3L277.368 53.95C275.678 57.6767 273.078 60.645 269.568 62.855C266.058 65.065 262.31 66.17 258.323 66.17ZM312.077 81.25C310.127 81.25 308.199 80.6867 306.292 79.56C304.429 78.4767 302.046 76.7867 299.142 74.49C296.976 72.7567 295.112 71.3483 293.552 70.265C292.036 69.225 290.367 68.3367 288.547 67.6C286.771 66.8633 284.951 66.495 283.087 66.495C282.437 66.495 281.939 66.5167 281.592 66.56L291.277 21.515C288.374 22.685 286.121 24.4833 284.517 26.91C282.957 29.2933 282.177 32.2183 282.177 35.685C282.177 37.2883 282.329 38.415 282.632 39.065C282.936 39.6717 283.087 40.0183 283.087 40.105C280.747 40.105 278.992 39.6283 277.822 38.675C276.696 37.6783 276.132 36.0533 276.132 33.8C276.132 31.0267 277.259 28.34 279.512 25.74C281.809 23.0967 284.734 20.9733 288.287 19.37C291.841 17.7233 295.394 16.9 298.947 16.9C299.554 16.9 300.421 16.9433 301.547 17.03L291.537 63.7C292.751 64.0033 293.986 64.4367 295.242 65C296.542 65.6067 298.102 66.4083 299.922 67.405C302.739 68.9217 305.144 70.07 307.137 70.85C309.131 71.6733 311.211 72.085 313.377 72.085C315.327 72.085 317.147 71.7383 318.837 71.045C318.491 74.2083 317.711 76.7 316.497 78.52C315.327 80.34 313.854 81.25 312.077 81.25ZM316.296 66.17C313.566 66.17 311.161 65.6933 309.081 64.74C307.001 63.7867 305.398 62.465 304.271 60.775C303.144 59.0417 302.581 57.0483 302.581 54.795C302.581 52.8883 302.971 51.155 303.751 49.595C304.574 48.035 305.658 46.8 307.001 45.89C308.388 44.98 309.904 44.525 311.551 44.525C313.068 44.525 314.346 44.915 315.386 45.695C316.426 46.4317 317.076 47.4717 317.336 48.815C315.083 48.815 313.284 49.4217 311.941 50.635C310.598 51.805 309.926 53.4083 309.926 55.445C309.926 57.3083 310.489 58.8033 311.616 59.93C312.743 61.0567 314.238 61.62 316.101 61.62C318.398 61.62 320.283 60.8617 321.756 59.345C323.273 57.785 324.031 55.835 324.031 53.495C324.031 51.4583 323.468 49.53 322.341 47.71C321.214 45.89 319.524 43.68 317.271 41.08C314.931 38.3933 313.154 36.0967 311.941 34.19C310.771 32.24 310.186 30.1167 310.186 27.82C310.186 25.5667 310.814 23.5517 312.071 21.775C313.328 19.955 315.061 18.525 317.271 17.485C319.481 16.445 321.973 15.925 324.746 15.925C328.256 15.925 331.051 16.7483 333.131 18.395C335.254 20.0417 336.316 22.2517 336.316 25.025C336.316 26.845 335.861 28.3183 334.951 29.445C334.041 30.5717 332.849 31.135 331.376 31.135C329.729 31.135 328.408 30.4633 327.411 29.12C328.234 28.5133 328.884 27.7117 329.361 26.715C329.838 25.7183 330.076 24.6783 330.076 23.595C330.076 22.2083 329.664 21.1033 328.841 20.28C328.018 19.4567 326.891 19.045 325.461 19.045C323.728 19.045 322.298 19.6733 321.171 20.93C320.088 22.1433 319.546 23.7033 319.546 25.61C319.546 27.3433 320.044 28.9683 321.041 30.485C322.038 31.9583 323.598 33.865 325.721 36.205C327.454 38.0683 328.841 39.6717 329.881 41.015C330.964 42.3583 331.874 43.9183 332.611 45.695C333.391 47.4283 333.781 49.3133 333.781 51.35C333.781 54.1233 333.001 56.6367 331.441 58.89C329.924 61.1433 327.823 62.92 325.136 64.22C322.493 65.52 319.546 66.17 316.296 66.17Z" fill="#2F527A"/>
<path d="M112.527 21.97H111.747C107.89 21.97 104.878 22.945 102.712 24.895C100.588 26.8017 99.5268 30.2033 99.5268 35.1C99.5268 36.7033 99.6785 37.83 99.9818 38.48C100.285 39.0867 100.437 39.4333 100.437 39.52C98.0968 39.52 96.3418 39.0433 95.1718 38.09C94.0451 37.0933 93.4818 35.4683 93.4818 33.215C93.4818 30.1383 94.2401 27.3433 95.7568 24.83C97.2735 22.2733 99.6785 20.215 102.972 18.655C106.308 17.095 110.533 16.315 115.647 16.315C118.507 16.315 121.583 16.575 124.877 17.095C127.65 17.5717 130.12 17.81 132.287 17.81C135.06 17.81 137.573 17.355 139.827 16.445C139.74 19.2617 139.025 21.3417 137.682 22.685C136.338 24.0283 134.345 24.7 131.702 24.7C130.315 24.7 128.928 24.5917 127.542 24.375C126.155 24.1583 124.183 23.79 121.627 23.27L112.657 65H103.297L112.527 21.97ZM152.726 66.105C149.346 66.105 147.656 64.6533 147.656 61.75C147.656 60.7967 147.786 59.7133 148.046 58.5C148.349 57.2433 148.761 55.64 149.281 53.69C149.887 51.6533 150.342 49.92 150.646 48.49C150.949 47.06 151.101 45.7817 151.101 44.655C151.101 41.7083 149.801 40.235 147.201 40.235C146.507 40.235 145.792 40.3217 145.056 40.495L139.856 65H130.496L139.336 23.66L148.956 22.36L145.771 37.375H146.291C147.981 37.375 149.541 36.79 150.971 35.62C152.401 34.45 153.506 32.9983 154.286 31.265C155.109 29.4883 155.521 27.755 155.521 26.065C155.521 24.0717 154.914 22.4467 153.701 21.19C152.531 19.89 150.754 19.24 148.371 19.24C144.861 19.24 141.784 19.8683 139.141 21.125C136.497 22.3817 134.439 24.2017 132.966 26.585C131.536 28.9683 130.821 31.785 130.821 35.035C130.821 36.6383 130.972 37.765 131.276 38.415C131.579 39.0217 131.731 39.3683 131.731 39.455C129.391 39.455 127.636 38.9783 126.466 38.025C125.339 37.0283 124.776 35.4033 124.776 33.15C124.776 30.3767 125.902 27.69 128.156 25.09C130.452 22.4467 133.377 20.3233 136.931 18.72C140.484 17.0733 144.037 16.25 147.591 16.25C150.841 16.25 153.571 16.7267 155.781 17.68C157.991 18.6333 159.637 19.9117 160.721 21.515C161.804 23.075 162.346 24.7867 162.346 26.65C162.346 28.6867 161.717 30.7233 160.461 32.76C159.204 34.7967 157.492 36.465 155.326 37.765C156.972 38.2417 158.121 39.0433 158.771 40.17C159.464 41.2533 159.811 42.6183 159.811 44.265C159.811 45.5217 159.659 46.865 159.356 48.295C159.052 49.6817 158.619 51.415 158.056 53.495C157.709 54.8383 157.384 56.16 157.081 57.46C156.777 58.76 156.626 59.8433 156.626 60.71C156.626 61.7067 156.842 62.595 157.276 63.375C157.752 64.155 158.381 64.6967 159.161 65C156.517 65.7367 154.372 66.105 152.726 66.105ZM177.594 72.41C175.99 72.41 174.582 72.28 173.369 72.02C172.155 71.76 171.094 71.1317 170.184 70.135C169.317 69.1383 168.884 67.6 168.884 65.52C168.884 62.6167 169.75 58.7167 171.484 53.82C173.26 48.9233 175.579 44.005 178.439 39.065C176.272 39.195 174.56 39.52 173.304 40.04C172.047 40.56 171.224 41.3617 170.834 42.445C171.007 42.445 171.18 42.6617 171.354 43.095C171.57 43.5283 171.679 43.9833 171.679 44.46C171.679 45.24 171.332 45.8683 170.639 46.345C169.945 46.7783 169.079 46.995 168.039 46.995C166.825 46.995 165.85 46.67 165.114 46.02C164.377 45.37 164.009 44.4383 164.009 43.225C164.009 41.7517 164.572 40.4083 165.699 39.195C166.869 37.9817 168.472 37.0283 170.509 36.335C172.545 35.5983 174.799 35.23 177.269 35.23C178.179 35.23 179.305 35.295 180.649 35.425C184.202 29.7917 187.95 25.1983 191.894 21.645C195.88 18.0483 199.672 16.25 203.269 16.25C205.349 16.25 207.06 16.5533 208.404 17.16L198.199 65H188.839L193.844 41.405C192.24 40.6683 190.767 40.1267 189.424 39.78C188.08 39.4333 186.65 39.195 185.134 39.065C182.664 44.395 180.627 49.855 179.024 55.445C177.464 60.9917 176.684 65.4333 176.684 68.77C176.684 70.4167 176.987 71.63 177.594 72.41ZM198.199 20.865C196.335 21.8617 194.385 23.725 192.349 26.455C190.355 29.1417 188.405 32.4133 186.499 36.27C189.619 36.8767 192.262 37.635 194.429 38.545L198.199 20.865ZM222.962 20.605C219.885 21.775 217.502 23.595 215.812 26.065C214.122 28.4917 213.277 31.4817 213.277 35.035C213.277 36.6383 213.428 37.765 213.732 38.415C214.035 39.0217 214.187 39.3683 214.187 39.455C211.847 39.455 210.092 38.9783 208.922 38.025C207.795 37.0283 207.232 35.4033 207.232 33.15C207.232 30.3767 208.358 27.69 210.612 25.09C212.908 22.4467 215.833 20.3233 219.387 18.72C222.94 17.0733 226.493 16.25 230.047 16.25C230.653 16.25 231.52 16.2933 232.647 16.38L233.232 56.355L246.882 16.575H251.432L233.362 65H224.002L222.962 20.605ZM259.247 66.17C255.304 66.17 252.314 65.0867 250.277 62.92C248.284 60.7533 247.287 58.0233 247.287 54.73C247.287 52.39 247.764 50.05 248.717 47.71C249.714 45.3267 251.122 43.2467 252.942 41.47C254.762 39.6933 256.885 38.5017 259.312 37.895C257.969 36.9417 256.972 35.7933 256.322 34.45C255.672 33.0633 255.347 31.6117 255.347 30.095C255.347 27.8417 255.954 25.6317 257.167 23.465C258.424 21.2983 260.135 19.5433 262.302 18.2C264.512 16.8133 266.939 16.12 269.582 16.12C272.312 16.12 274.544 16.835 276.277 18.265C278.01 19.695 278.877 21.6883 278.877 24.245C278.877 26.1517 278.4 27.755 277.447 29.055C276.494 30.355 275.367 31.005 274.067 31.005C272.897 31.005 271.879 30.42 271.012 29.25C271.792 28.99 272.464 28.275 273.027 27.105C273.59 25.935 273.872 24.765 273.872 23.595C273.872 22.3383 273.525 21.4283 272.832 20.865C272.139 20.2583 271.294 19.955 270.297 19.955C269.04 19.955 267.892 20.41 266.852 21.32C265.855 22.1867 265.075 23.335 264.512 24.765C263.949 26.1517 263.667 27.6033 263.667 29.12C263.667 31.2 264.209 33.0417 265.292 34.645C266.375 36.205 268.022 37.2667 270.232 37.83C268.022 38.3067 266.029 39.39 264.252 41.08C262.475 42.77 261.089 44.7417 260.092 46.995C259.095 49.205 258.597 51.3283 258.597 53.365C258.597 55.315 259.095 56.8967 260.092 58.11C261.132 59.3233 262.692 59.93 264.772 59.93C266.939 59.93 269.192 59.345 271.532 58.175C273.915 56.9617 275.67 55.3367 276.797 53.3L278.292 53.95C276.602 57.6767 274.002 60.645 270.492 62.855C266.982 65.065 263.234 66.17 259.247 66.17ZM313.001 81.25C311.051 81.25 309.123 80.6867 307.216 79.56C305.353 78.4767 302.969 76.7867 300.066 74.49C297.899 72.7567 296.036 71.3483 294.476 70.265C292.959 69.225 291.291 68.3367 289.471 67.6C287.694 66.8633 285.874 66.495 284.011 66.495C283.361 66.495 282.863 66.5167 282.516 66.56L292.201 21.515C289.298 22.685 287.044 24.4833 285.441 26.91C283.881 29.2933 283.101 32.2183 283.101 35.685C283.101 37.2883 283.253 38.415 283.556 39.065C283.859 39.6717 284.011 40.0183 284.011 40.105C281.671 40.105 279.916 39.6283 278.746 38.675C277.619 37.6783 277.056 36.0533 277.056 33.8C277.056 31.0267 278.183 28.34 280.436 25.74C282.733 23.0967 285.658 20.9733 289.211 19.37C292.764 17.7233 296.318 16.9 299.871 16.9C300.478 16.9 301.344 16.9433 302.471 17.03L292.461 63.7C293.674 64.0033 294.909 64.4367 296.166 65C297.466 65.6067 299.026 66.4083 300.846 67.405C303.663 68.9217 306.068 70.07 308.061 70.85C310.054 71.6733 312.134 72.085 314.301 72.085C316.251 72.085 318.071 71.7383 319.761 71.045C319.414 74.2083 318.634 76.7 317.421 78.52C316.251 80.34 314.778 81.25 313.001 81.25ZM317.22 66.17C314.49 66.17 312.085 65.6933 310.005 64.74C307.925 63.7867 306.322 62.465 305.195 60.775C304.068 59.0417 303.505 57.0483 303.505 54.795C303.505 52.8883 303.895 51.155 304.675 49.595C305.498 48.035 306.582 46.8 307.925 45.89C309.312 44.98 310.828 44.525 312.475 44.525C313.992 44.525 315.27 44.915 316.31 45.695C317.35 46.4317 318 47.4717 318.26 48.815C316.007 48.815 314.208 49.4217 312.865 50.635C311.522 51.805 310.85 53.4083 310.85 55.445C310.85 57.3083 311.413 58.8033 312.54 59.93C313.667 61.0567 315.162 61.62 317.025 61.62C319.322 61.62 321.207 60.8617 322.68 59.345C324.197 57.785 324.955 55.835 324.955 53.495C324.955 51.4583 324.392 49.53 323.265 47.71C322.138 45.89 320.448 43.68 318.195 41.08C315.855 38.3933 314.078 36.0967 312.865 34.19C311.695 32.24 311.11 30.1167 311.11 27.82C311.11 25.5667 311.738 23.5517 312.995 21.775C314.252 19.955 315.985 18.525 318.195 17.485C320.405 16.445 322.897 15.925 325.67 15.925C329.18 15.925 331.975 16.7483 334.055 18.395C336.178 20.0417 337.24 22.2517 337.24 25.025C337.24 26.845 336.785 28.3183 335.875 29.445C334.965 30.5717 333.773 31.135 332.3 31.135C330.653 31.135 329.332 30.4633 328.335 29.12C329.158 28.5133 329.808 27.7117 330.285 26.715C330.762 25.7183 331 24.6783 331 23.595C331 22.2083 330.588 21.1033 329.765 20.28C328.942 19.4567 327.815 19.045 326.385 19.045C324.652 19.045 323.222 19.6733 322.095 20.93C321.012 22.1433 320.47 23.7033 320.47 25.61C320.47 27.3433 320.968 28.9683 321.965 30.485C322.962 31.9583 324.522 33.865 326.645 36.205C328.378 38.0683 329.765 39.6717 330.805 41.015C331.888 42.3583 332.798 43.9183 333.535 45.695C334.315 47.4283 334.705 49.3133 334.705 51.35C334.705 54.1233 333.925 56.6367 332.365 58.89C330.848 61.1433 328.747 62.92 326.06 64.22C323.417 65.52 320.47 66.17 317.22 66.17Z" fill="white"/>
</svg>
