<svg width="69" height="18" viewBox="0 0 69 18" fill="none" xmlns="http://www.w3.org/2000/svg">
<path d="M0.396662 17V0.272727H4.09659V7.10902H11.0717V0.272727H14.7798V17H11.0717V10.1474H4.09659V17H0.396662ZM33.0896 8.63636C33.0896 10.4659 32.7411 12.0205 32.0441 13.3001C31.3472 14.5797 30.4024 15.5543 29.21 16.2241C28.0229 16.8938 26.6862 17.2287 25.1997 17.2287C23.7077 17.2287 22.3655 16.8938 21.173 16.2241C19.986 15.5489 19.0467 14.5715 18.3552 13.2919C17.6637 12.0123 17.3179 10.4605 17.3179 8.63636C17.3179 6.80682 17.6637 5.25225 18.3552 3.97266C19.0467 2.69306 19.986 1.71839 21.173 1.04865C22.3655 0.378906 23.7077 0.0440335 25.1997 0.0440335C26.6862 0.0440335 28.0229 0.378906 29.21 1.04865C30.4024 1.71839 31.3472 2.69306 32.0441 3.97266C32.7411 5.25225 33.0896 6.80682 33.0896 8.63636ZM29.3161 8.63636C29.3161 7.48745 29.1473 6.51823 28.8097 5.72869C28.4722 4.93371 27.9957 4.33203 27.3804 3.92365C26.7651 3.51527 26.0382 3.31108 25.1997 3.31108C24.3611 3.31108 23.6342 3.51527 23.0189 3.92365C22.4036 4.33203 21.9272 4.93371 21.5896 5.72869C21.252 6.51823 21.0832 7.48745 21.0832 8.63636C21.0832 9.78527 21.252 10.7572 21.5896 11.5522C21.9272 12.3417 22.4036 12.9407 23.0189 13.3491C23.6342 13.7575 24.3611 13.9616 25.1997 13.9616C26.0382 13.9616 26.7651 13.7575 27.3804 13.3491C27.9957 12.9407 28.4722 12.3417 28.8097 11.5522C29.1473 10.7572 29.3161 9.78527 29.3161 8.63636ZM35.6154 0.272727H40.1893L44.6733 11.2092H44.8693L49.3533 0.272727H53.9354V17H50.3335V6.31676H50.1946L45.9719 16.9102H43.5707L39.348 6.27592H39.2092V17H35.6154V0.272727ZM56.7287 17V0.272727H68.1307V3.31108H60.4286V7.10902H67.5426V10.1474H60.4286V13.9616H68.147V17H56.7287Z" fill="white"/>
<path d="M0.396662 17H-0.603338V18H0.396662V17ZM0.396662 0.272727V-0.727273H-0.603338V0.272727H0.396662ZM4.09659 0.272727H5.09659V-0.727273H4.09659V0.272727ZM4.09659 7.10902H3.09659V8.10902H4.09659V7.10902ZM11.0717 7.10902V8.10902H12.0717V7.10902H11.0717ZM11.0717 0.272727V-0.727273H10.0717V0.272727H11.0717ZM14.7798 0.272727H15.7798V-0.727273H14.7798V0.272727ZM14.7798 17V18H15.7798V17H14.7798ZM11.0717 17H10.0717V18H11.0717V17ZM11.0717 10.1474H12.0717V9.14737H11.0717V10.1474ZM4.09659 10.1474V9.14737H3.09659V10.1474H4.09659ZM4.09659 17V18H5.09659V17H4.09659ZM1.39666 17V0.272727H-0.603338V17H1.39666ZM0.396662 1.27273H4.09659V-0.727273H0.396662V1.27273ZM3.09659 0.272727V7.10902H5.09659V0.272727H3.09659ZM4.09659 8.10902H11.0717V6.10902H4.09659V8.10902ZM12.0717 7.10902V0.272727H10.0717V7.10902H12.0717ZM11.0717 1.27273H14.7798V-0.727273H11.0717V1.27273ZM13.7798 0.272727V17H15.7798V0.272727H13.7798ZM14.7798 16H11.0717V18H14.7798V16ZM12.0717 17V10.1474H10.0717V17H12.0717ZM11.0717 9.14737H4.09659V11.1474H11.0717V9.14737ZM3.09659 10.1474V17H5.09659V10.1474H3.09659ZM4.09659 16H0.396662V18H4.09659V16ZM32.0441 13.3001L31.1659 12.8217L31.1659 12.8217L32.0441 13.3001ZM29.21 16.2241L28.7203 15.3522L28.7186 15.3531L29.21 16.2241ZM21.173 16.2241L20.6786 17.0933L20.6833 17.096L21.173 16.2241ZM18.3552 3.97266L19.235 4.4481L19.235 4.44809L18.3552 3.97266ZM21.173 1.04865L20.6833 0.176755L20.6816 0.177716L21.173 1.04865ZM29.21 1.04865L28.7186 1.91959L28.7203 1.92055L29.21 1.04865ZM32.0441 3.97266L31.1659 4.45098L31.1659 4.45098L32.0441 3.97266ZM28.8097 5.72869L27.8893 6.11957L27.8903 6.12185L28.8097 5.72869ZM27.3804 3.92365L26.8274 4.75683L26.8274 4.75683L27.3804 3.92365ZM23.0189 3.92365L23.5719 4.75683L23.5719 4.75683L23.0189 3.92365ZM21.5896 5.72869L22.5091 6.12185L22.51 6.11957L21.5896 5.72869ZM21.5896 11.5522L20.6691 11.9431L20.6701 11.9454L21.5896 11.5522ZM23.0189 13.3491L22.4659 14.1823L22.4659 14.1823L23.0189 13.3491ZM27.3804 13.3491L27.9334 14.1823L27.9334 14.1823L27.3804 13.3491ZM28.8097 11.5522L29.7292 11.9454L29.7302 11.9431L28.8097 11.5522ZM32.0896 8.63636C32.0896 10.3407 31.7651 11.7218 31.1659 12.8217L32.9223 13.7784C33.7171 12.3192 34.0896 10.5911 34.0896 8.63636H32.0896ZM31.1659 12.8217C30.5528 13.9475 29.738 14.7806 28.7203 15.3522L29.6997 17.096C31.0669 16.3281 32.1415 15.2118 32.9223 13.7784L31.1659 12.8217ZM28.7186 15.3531C27.6949 15.9307 26.53 16.2287 25.1997 16.2287V18.2287C26.8423 18.2287 28.351 17.8569 29.7014 17.095L28.7186 15.3531ZM25.1997 16.2287C23.8632 16.2287 22.6923 15.9304 21.6627 15.3522L20.6833 17.096C22.0387 17.8572 23.5522 18.2287 25.1997 18.2287V16.2287ZM21.6674 15.3549C20.6539 14.7784 19.8435 13.9425 19.235 12.8165L17.4755 13.7673C18.25 15.2005 19.3181 16.3194 20.6786 17.0933L21.6674 15.3549ZM19.235 12.8165C18.6399 11.7155 18.3179 10.3359 18.3179 8.63636H16.3179C16.3179 10.5851 16.6874 12.3092 17.4755 13.7673L19.235 12.8165ZM18.3179 8.63636C18.3179 6.93085 18.6402 5.54871 19.235 4.4481L17.4755 3.49722C16.6872 4.95579 16.3179 6.68279 16.3179 8.63636H18.3179ZM19.235 4.44809C19.8432 3.32266 20.6527 2.49044 21.6644 1.91959L20.6816 0.177716C19.3193 0.946353 18.2503 2.06346 17.4755 3.49722L19.235 4.44809ZM21.6627 1.92054C22.6923 1.3423 23.8632 1.04403 25.1997 1.04403V-0.955967C23.5522 -0.955967 22.0387 -0.584484 20.6833 0.176756L21.6627 1.92054ZM25.1997 1.04403C26.53 1.04403 27.6949 1.342 28.7186 1.91958L29.7014 0.177716C28.351 -0.584186 26.8423 -0.955967 25.1997 -0.955967V1.04403ZM28.7203 1.92055C29.738 2.49214 30.5528 3.32522 31.1659 4.45098L32.9223 3.49433C32.1415 2.06091 31.0669 0.944652 29.6997 0.176756L28.7203 1.92055ZM31.1659 4.45098C31.7651 5.55094 32.0896 6.93199 32.0896 8.63636H34.0896C34.0896 6.68164 33.7171 4.95356 32.9223 3.49433L31.1659 4.45098ZM30.3161 8.63636C30.3161 7.3955 30.1346 6.2837 29.7292 5.33554L27.8903 6.12185C28.16 6.75276 28.3161 7.57941 28.3161 8.63636H30.3161ZM29.7302 5.33782C29.3293 4.39383 28.738 3.62448 27.9334 3.09047L26.8274 4.75683C27.2534 5.03958 27.615 5.47359 27.8893 6.11957L29.7302 5.33782ZM27.9334 3.09047C27.1327 2.55903 26.2074 2.31108 25.1997 2.31108V4.31108C25.869 4.31108 26.3975 4.47151 26.8274 4.75683L27.9334 3.09047ZM25.1997 2.31108C24.1919 2.31108 23.2666 2.55903 22.4659 3.09047L23.5719 4.75683C24.0018 4.47151 24.5304 4.31108 25.1997 4.31108V2.31108ZM22.4659 3.09047C21.6613 3.62448 21.07 4.39383 20.6691 5.33782L22.51 6.11957C22.7843 5.47359 23.1459 5.03958 23.5719 4.75683L22.4659 3.09047ZM20.6701 5.33554C20.2647 6.2837 20.0832 7.3955 20.0832 8.63636H22.0832C22.0832 7.57941 22.2393 6.75276 22.5091 6.12185L20.6701 5.33554ZM20.0832 8.63636C20.0832 9.87758 20.2648 10.9909 20.6691 11.9431L22.51 11.1613C22.2392 10.5235 22.0832 9.69297 22.0832 8.63636H20.0832ZM20.6701 11.9454C21.0716 12.8843 21.6631 13.6494 22.4659 14.1823L23.5719 12.5159C23.1441 12.232 22.7828 11.7992 22.5091 11.159L20.6701 11.9454ZM22.4659 14.1823C23.2666 14.7137 24.1919 14.9616 25.1997 14.9616V12.9616C24.5304 12.9616 24.0018 12.8012 23.5719 12.5159L22.4659 14.1823ZM25.1997 14.9616C26.2074 14.9616 27.1327 14.7137 27.9334 14.1823L26.8274 12.5159C26.3975 12.8012 25.869 12.9616 25.1997 12.9616V14.9616ZM27.9334 14.1823C28.7362 13.6494 29.3277 12.8843 29.7292 11.9454L27.8903 11.159C27.6166 11.7992 27.2552 12.232 26.8274 12.5159L27.9334 14.1823ZM29.7302 11.9431C30.1345 10.9909 30.3161 9.87758 30.3161 8.63636H28.3161C28.3161 9.69297 28.1602 10.5235 27.8893 11.1613L29.7302 11.9431ZM35.6154 0.272727V-0.727273H34.6154V0.272727H35.6154ZM40.1893 0.272727L41.1145 -0.106632L40.8601 -0.727273H40.1893V0.272727ZM44.6733 11.2092L43.748 11.5885L44.0025 12.2092H44.6733V11.2092ZM44.8693 11.2092V12.2092H45.5401L45.7946 11.5885L44.8693 11.2092ZM49.3533 0.272727V-0.727273H48.6826L48.4281 -0.106632L49.3533 0.272727ZM53.9354 0.272727H54.9354V-0.727273H53.9354V0.272727ZM53.9354 17V18H54.9354V17H53.9354ZM50.3335 17H49.3335V18H50.3335V17ZM50.3335 6.31676H51.3335V5.31676H50.3335V6.31676ZM50.1946 6.31676V5.31676H49.5167L49.2657 5.94648L50.1946 6.31676ZM45.9719 16.9102V17.9102H46.6499L46.9009 17.2804L45.9719 16.9102ZM43.5707 16.9102L42.6413 17.2792L42.8918 17.9102H43.5707V16.9102ZM39.348 6.27592L40.2774 5.90687L40.0269 5.27592H39.348V6.27592ZM39.2092 6.27592V5.27592H38.2092V6.27592H39.2092ZM39.2092 17V18H40.2092V17H39.2092ZM35.6154 17H34.6154V18H35.6154V17ZM35.6154 1.27273H40.1893V-0.727273H35.6154V1.27273ZM39.264 0.652086L43.748 11.5885L45.5985 10.8298L41.1145 -0.106632L39.264 0.652086ZM44.6733 12.2092H44.8693V10.2092H44.6733V12.2092ZM45.7946 11.5885L50.2786 0.652086L48.4281 -0.106632L43.9441 10.8298L45.7946 11.5885ZM49.3533 1.27273H53.9354V-0.727273H49.3533V1.27273ZM52.9354 0.272727V17H54.9354V0.272727H52.9354ZM53.9354 16H50.3335V18H53.9354V16ZM51.3335 17V6.31676H49.3335V17H51.3335ZM50.3335 5.31676H50.1946V7.31676H50.3335V5.31676ZM49.2657 5.94648L45.043 16.5399L46.9009 17.2804L51.1235 6.68704L49.2657 5.94648ZM45.9719 15.9102H43.5707V17.9102H45.9719V15.9102ZM44.5001 16.5411L40.2774 5.90687L38.4186 6.64497L42.6413 17.2792L44.5001 16.5411ZM39.348 5.27592H39.2092V7.27592H39.348V5.27592ZM38.2092 6.27592V17H40.2092V6.27592H38.2092ZM39.2092 16H35.6154V18H39.2092V16ZM36.6154 17V0.272727H34.6154V17H36.6154ZM56.7287 17H55.7287V18H56.7287V17ZM56.7287 0.272727V-0.727273H55.7287V0.272727H56.7287ZM68.1307 0.272727H69.1307V-0.727273H68.1307V0.272727ZM68.1307 3.31108V4.31108H69.1307V3.31108H68.1307ZM60.4286 3.31108V2.31108H59.4286V3.31108H60.4286ZM60.4286 7.10902H59.4286V8.10902H60.4286V7.10902ZM67.5426 7.10902H68.5426V6.10902H67.5426V7.10902ZM67.5426 10.1474V11.1474H68.5426V10.1474H67.5426ZM60.4286 10.1474V9.14737H59.4286V10.1474H60.4286ZM60.4286 13.9616H59.4286V14.9616H60.4286V13.9616ZM68.147 13.9616H69.147V12.9616H68.147V13.9616ZM68.147 17V18H69.147V17H68.147ZM57.7287 17V0.272727H55.7287V17H57.7287ZM56.7287 1.27273H68.1307V-0.727273H56.7287V1.27273ZM67.1307 0.272727V3.31108H69.1307V0.272727H67.1307ZM68.1307 2.31108H60.4286V4.31108H68.1307V2.31108ZM59.4286 3.31108V7.10902H61.4286V3.31108H59.4286ZM60.4286 8.10902H67.5426V6.10902H60.4286V8.10902ZM66.5426 7.10902V10.1474H68.5426V7.10902H66.5426ZM67.5426 9.14737H60.4286V11.1474H67.5426V9.14737ZM59.4286 10.1474V13.9616H61.4286V10.1474H59.4286ZM60.4286 14.9616H68.147V12.9616H60.4286V14.9616ZM67.147 13.9616V17H69.147V13.9616H67.147ZM68.147 16H56.7287V18H68.147V16Z" fill="#2F527A"/>
</svg>
