<svg width="73" height="44" viewBox="0 0 73 44" fill="none" xmlns="http://www.w3.org/2000/svg">
<path d="M24.852 43.969C21.888 43.969 20.406 42.696 20.406 40.15C20.406 39.314 20.52 38.364 20.748 37.3C21.014 36.198 21.375 34.792 21.831 33.082C22.363 31.296 22.762 29.776 23.028 28.522C23.294 27.268 23.427 26.147 23.427 25.159C23.427 22.575 22.287 21.283 20.007 21.283C19.361 21.283 18.734 21.359 18.126 21.511L13.566 43H5.358L13.623 4.24C11.077 5.304 9.101 6.9 7.695 9.028C6.327 11.156 5.643 13.721 5.643 16.723C5.643 18.129 5.776 19.117 6.042 19.687C6.308 20.219 6.441 20.523 6.441 20.599C4.389 20.599 2.85 20.181 1.824 19.345C0.836 18.471 0.342 17.046 0.342 15.07C0.342 12.638 1.33 10.282 3.306 8.002C5.32 5.684 7.885 3.822 11.001 2.416C14.117 0.971997 17.233 0.249997 20.349 0.249997C20.881 0.249997 21.641 0.287997 22.629 0.363999L18.924 17.806L24.795 9.94C29.469 3.632 31.825 0.496997 31.863 0.534996H37.848L22.002 18.775L23.997 18.718C26.581 18.718 28.405 19.269 29.469 20.371C30.533 21.435 31.065 22.917 31.065 24.817C31.065 25.919 30.932 27.097 30.666 28.351C30.4 29.567 30.02 31.087 29.526 32.911C29.222 34.089 28.937 35.248 28.671 36.388C28.405 37.528 28.272 38.478 28.272 39.238C28.272 40.112 28.462 40.891 28.842 41.575C29.26 42.259 29.811 42.734 30.495 43C28.177 43.646 26.296 43.969 24.852 43.969ZM59.0854 43.969C56.1214 43.969 54.6394 42.696 54.6394 40.15C54.6394 39.314 54.7534 38.364 54.9814 37.3C55.2474 36.198 55.6084 34.792 56.0644 33.082C56.5964 31.296 56.9954 29.776 57.2614 28.522C57.5274 27.268 57.6604 26.147 57.6604 25.159C57.6604 22.575 56.5204 21.283 54.2404 21.283C53.5944 21.283 52.9674 21.359 52.3594 21.511L47.7994 43H39.5914L47.8564 4.24C45.3104 5.304 43.3344 6.9 41.9284 9.028C40.5604 11.156 39.8764 13.721 39.8764 16.723C39.8764 18.129 40.0094 19.117 40.2754 19.687C40.5414 20.219 40.6744 20.523 40.6744 20.599C38.6224 20.599 37.0834 20.181 36.0574 19.345C35.0694 18.471 34.5754 17.046 34.5754 15.07C34.5754 12.638 35.5634 10.282 37.5394 8.002C39.5534 5.684 42.1184 3.822 45.2344 2.416C48.3504 0.971997 51.4664 0.249997 54.5824 0.249997C55.1144 0.249997 55.8744 0.287997 56.8624 0.363999L53.1574 17.806L59.0284 9.94C63.7024 3.632 66.0584 0.496997 66.0964 0.534996H72.0814L56.2354 18.775L58.2304 18.718C60.8144 18.718 62.6384 19.269 63.7024 20.371C64.7664 21.435 65.2984 22.917 65.2984 24.817C65.2984 25.919 65.1654 27.097 64.8994 28.351C64.6334 29.567 64.2534 31.087 63.7594 32.911C63.4554 34.089 63.1704 35.248 62.9044 36.388C62.6384 37.528 62.5054 38.478 62.5054 39.238C62.5054 40.112 62.6954 40.891 63.0754 41.575C63.4934 42.259 64.0444 42.734 64.7284 43C62.4104 43.646 60.5294 43.969 59.0854 43.969Z" fill="white"/>
</svg>
